<svg xmlns="http://www.w3.org/2000/svg" width="84.328" height="113.662" viewBox="0 0 84.328 113.662">
  <g id="All_Baggit_bags_comes_" data-name="All Baggit bags comes " transform="translate(1 0.988)">
    <path id="Path_60" data-name="Path 60" d="M-3534.42-3697.714v74.7h73.946v-82.246h-73.946a35.033,35.033,0,0,1-5.345-8.307,32.755,32.755,0,0,1-2.2-9.425l75.455-11.7" transform="translate(3542.801 3734.687)" fill="none" stroke="#000" stroke-width="2"/>
    <path id="Path_61" data-name="Path 61" d="M-3534.1-3619.868s-9.153-6.462-8.929-13.606,0-86.617,0-86.617" transform="translate(3543.031 3731.542)" fill="none" stroke="#000" stroke-width="2"/>
    <g id="Ellipse_65" data-name="Ellipse 65" transform="translate(21.206 39.765)" fill="rgba(255,255,255,0)" stroke="#000" stroke-width="2">
      <circle cx="22.359" cy="22.359" r="22.359" stroke="none"/>
      <circle cx="22.359" cy="22.359" r="21.359" fill="none"/>
    </g>
    <path id="Path_62" data-name="Path 62" d="M-3492.779-3665.235s2.246-8.19,9.379-6.869,6.518,9.155,3.435,11.756c-2.833,2.392-10.457,7.4-10.457,7.4v3.345l13.759-1.231" transform="translate(3527.227 3723.051)" fill="none" stroke="#000" stroke-width="2"/>
    <path id="Path_63" data-name="Path 63" d="M-3498.283-3627v12.974l10.157-3.483,7.836,3.483V-3627" transform="translate(3533.388 3711.482)" fill="none" stroke="#000" stroke-width="2"/>
    <path id="Path_64" data-name="Path 64" d="M-3455.383-3699.491v-4.933l-41.791,4.933" transform="translate(3533.149 3728.165)" fill="none" stroke="#000" stroke-width="2"/>
    <path id="Path_65" data-name="Path 65" d="M-3463.274-3714.743l-2.612-9.287-67.909,6.095" transform="translate(3541.041 3732.39)" fill="none" stroke="#000" stroke-width="2"/>
  </g>
</svg>
