<svg xmlns="http://www.w3.org/2000/svg" width="28" height="28" viewBox="0 0 28 28">
  <g id="Call" transform="translate(-1217 -9480)" opacity="0.5">
    <path id="Path_29" data-name="Path 29" d="M14,0A14,14,0,1,0,28,14,14,14,0,0,0,14,0Z" transform="translate(1217.001 9480)" fill="#200e32"/>
    <path id="Path_30" data-name="Path 30" d="M15.284,10.393a2.4,2.4,0,0,1-.511-.092,7.523,7.523,0,0,1-1-.3,1.526,1.526,0,0,0-1.892.763l-.168.351A10.048,10.048,0,0,1,9.676,9.592,10.048,10.048,0,0,1,8.15,7.554l.351-.16A1.526,1.526,0,0,0,9.264,5.5a7.989,7.989,0,0,1-.3-1.007c-.038-.168-.069-.343-.092-.511a2.289,2.289,0,0,0-2.289-1.9h-2.3A2.281,2.281,0,0,0,2.023,4.678,14.5,14.5,0,0,0,14.544,17.2a1.953,1.953,0,0,0,.3,0A2.284,2.284,0,0,0,17.13,14.91V12.621a2.289,2.289,0,0,0-1.846-2.228Zm.374,4.578a.767.767,0,0,1-.877.755A13.093,13.093,0,0,1,7.25,12.033,13.093,13.093,0,0,1,3.526,4.48.767.767,0,0,1,4.289,3.6H6.578a.763.763,0,0,1,.763.6,3,3,0,0,0,.114.626A8.393,8.393,0,0,0,7.807,6l-1.068.5a.8.8,0,0,0-.4,1.007,11.055,11.055,0,0,0,5.341,5.341.8.8,0,0,0,1.007-.4l.481-1.068a9.469,9.469,0,0,0,1.205.351c.2.046.412.084.618.114a.763.763,0,0,1,.6.763ZM11.156,2h-.534a.766.766,0,1,0,.13,1.526h.4A4.578,4.578,0,0,1,15.734,8.1v.4a.763.763,0,0,0,.694.824h.061a.763.763,0,0,0,.763-.694V8.1a6.1,6.1,0,0,0-6.1-6.1Zm1.526,6.1a.763.763,0,0,0,1.526,0,3.052,3.052,0,0,0-3.052-3.052.763.763,0,1,0,0,1.526A1.526,1.526,0,0,1,12.682,8.1Z" transform="translate(1221.373 9484.397)" fill="#f6f5f5" stroke="#200e32" stroke-width="0.5"/>
  </g>
</svg>
