<svg xmlns="http://www.w3.org/2000/svg" width="24.438" height="25.875" viewBox="0 0 24.438 25.875">
  <g id="Cart" transform="translate(0.752 0.75)">
    <path id="Path_2" data-name="Path 2" d="M17.556,25.9H6.97c-2.656,0-4.5-.642-5.638-1.963C.175,22.6-.194,20.651.2,17.992l.986-7.653q0-.02.006-.041a5.894,5.894,0,0,1,1.8-3.436,4.321,4.321,0,0,1,2.84-1.077h.185a6.241,6.241,0,0,1,12.444,0h.278c1.761,0,3.9,1.179,4.632,4.489q.007.033.011.066l.986,7.655c.351,2.451-.083,4.4-1.288,5.79A7.039,7.039,0,0,1,17.556,25.9ZM2.674,10.552l-.984,7.64,0,.015c-.326,2.174-.063,3.774.781,4.754S4.777,24.4,6.97,24.4H17.556a5.759,5.759,0,0,0,4.392-1.6,5.584,5.584,0,0,0,.936-4.6v-.011L21.9,10.565c-.544-2.417-1.987-3.28-3.16-3.28H5.833C4.6,7.285,3.127,8.144,2.674,10.552Zm4.85-4.767h9.433a4.74,4.74,0,0,0-9.433,0Z" transform="translate(-0.801 -0.778)" fill="#fff"/>
    <path id="Line_4" data-name="Line 4" d="M.058.75H0A.75.75,0,0,1-.75,0,.75.75,0,0,1,0-.75H.058A.75.75,0,0,1,.808,0,.75.75,0,0,1,.058.75Z" transform="translate(15.153 11.19)" fill="#fff"/>
    <path id="Line_5" data-name="Line 5" d="M.059.75H0A.75.75,0,0,1-.75,0,.75.75,0,0,1,0-.75H.059A.75.75,0,0,1,.809,0,.75.75,0,0,1,.059.75Z" transform="translate(7.759 11.19)" fill="#fff"/>
  </g>
</svg>
