<svg id="Facebook" xmlns="http://www.w3.org/2000/svg" width="27.972" height="27.543" viewBox="0 0 27.972 27.543">
  <path id="Path_7" data-name="Path 7" d="M297.355,508.668q-3.238.528-6.5.973Q294.117,509.2,297.355,508.668Zm0,0" transform="translate(-269.383 -484.498)" fill="#200e32"/>
  <path id="Path_8" data-name="Path 8" d="M302.436,507.793c-1.032.19-2.064.364-3.1.542C300.372,508.157,301.4,507.983,302.436,507.793Zm0,0" transform="translate(-275.596 -484.509)" fill="#200e32"/>
  <path id="Path_9" data-name="Path 9" d="M285.23,510.34q-3.79.428-7.617.751Q281.436,510.77,285.23,510.34Zm0,0" transform="translate(-257.281 -484.478)" fill="#200e32"/>
  <path id="Path_10" data-name="Path 10" d="M290.1,509.738c-1.214.162-2.436.312-3.653.454C287.663,510.048,288.888,509.9,290.1,509.738Zm0,0" transform="translate(-263.619 -484.486)" fill="#200e32"/>
  <path id="Path_11" data-name="Path 11" d="M309.4,506.41c-.91.193-1.823.388-2.739.573C307.577,506.8,308.492,506.6,309.4,506.41Zm0,0" transform="translate(-282.362 -484.526)" fill="#200e32"/>
  <path id="Path_12" data-name="Path 12" d="M326.691,502.113c-.735.21-1.471.407-2.206.613C325.22,502.52,325.953,502.323,326.691,502.113Zm0,0" transform="translate(-298.993 -484.579)" fill="#200e32"/>
  <path id="Path_13" data-name="Path 13" d="M321.463,503.543c-.8.21-1.6.423-2.4.625Q320.262,503.866,321.463,503.543Zm0,0" transform="translate(-293.954 -484.561)" fill="#200e32"/>
  <path id="Path_14" data-name="Path 14" d="M314.621,505.254c-.846.2-1.7.383-2.555.573C312.92,505.636,313.774,505.452,314.621,505.254Zm0,0" transform="translate(-287.394 -484.541)" fill="#200e32"/>
  <path id="Path_15" data-name="Path 15" d="M277.577,511.09q-2.046.171-4.1.308Q275.533,511.262,277.577,511.09Zm0,0" transform="translate(-251.491 -484.469)" fill="#200e32"/>
  <path id="Path_16" data-name="Path 16" d="M27.544,13.771A13.771,13.771,0,1,0,13.772,27.543h.242V16.82H11.055V13.372h2.958V10.834c0-2.943,1.8-4.544,4.422-4.544a24.357,24.357,0,0,1,2.653.135V9.5H19.278c-1.428,0-1.7.679-1.7,1.675v2.2h3.415l-.448,3.45H17.57V27.011a13.778,13.778,0,0,0,9.974-13.24Zm0,0" transform="translate(-0.001 -0.001)" fill="#200e32"/>
  <path id="Path_17" data-name="Path 17" d="M273.012,511.43q-4.045.261-8.121.4Q268.965,511.7,273.012,511.43Zm0,0" transform="translate(-245.317 -484.464)" fill="#200e32"/>
  <path id="Path_18" data-name="Path 18" d="M264.806,511.836q-2.147.071-4.3.107Q262.657,511.907,264.806,511.836Zm0,0" transform="translate(-239.214 -484.46)" fill="#200e32"/>
</svg>
