<svg xmlns="http://www.w3.org/2000/svg" width="27.548" height="27.548" viewBox="0 0 27.548 27.548">
  <path id="Instagram" d="M13.775,27.548A13.774,13.774,0,0,1,4.034,4.034,13.774,13.774,0,1,1,23.514,23.513,13.683,13.683,0,0,1,13.775,27.548Zm.31-21.355c-2.034,0-2.3,0-3.09.045a5.468,5.468,0,0,0-1.822.352,3.617,3.617,0,0,0-1.328.863A3.548,3.548,0,0,0,6.982,8.78,5.448,5.448,0,0,0,6.63,10.6c-.045.795-.045,1.056-.045,3.09s0,2.294.045,3.09a5.448,5.448,0,0,0,.352,1.822,3.546,3.546,0,0,0,.863,1.327,3.606,3.606,0,0,0,1.328.863,5.468,5.468,0,0,0,1.822.353c.795.045,1.056.045,3.09.045s2.294,0,3.089-.045A5.47,5.47,0,0,0,19,20.795a3.547,3.547,0,0,0,1.327-.863,3.658,3.658,0,0,0,.87-1.327,5.7,5.7,0,0,0,.345-1.822c0-.306.006-.528.015-.809.013-.457.03-1.025.03-2.281,0-2.034,0-2.3-.045-3.09a5.7,5.7,0,0,0-.345-1.822,3.677,3.677,0,0,0-.87-1.328A3.546,3.546,0,0,0,19,6.59a5.47,5.47,0,0,0-1.823-.352C16.379,6.192,16.118,6.192,14.085,6.192Zm.03,13.62c-1.951,0-2.251,0-3-.045h-.08a4.294,4.294,0,0,1-1.375-.226,2.442,2.442,0,0,1-.826-.562,2.266,2.266,0,0,1-.555-.863,4.139,4.139,0,0,1-.3-1.425c0-.286-.006-.5-.015-.772-.013-.425-.03-1.008-.03-2.228,0-1.994,0-2.25.045-3a4.156,4.156,0,0,1,.263-1.425,2.267,2.267,0,0,1,.592-.825,2.367,2.367,0,0,1,.826-.6,4.248,4.248,0,0,1,1.425-.255c.286,0,.5-.007.772-.015.426-.013,1.008-.031,2.228-.031,1.994,0,2.25,0,3,.045a4.2,4.2,0,0,1,1.395.255,2.311,2.311,0,0,1,.893.6,2.276,2.276,0,0,1,.562.825,4.21,4.21,0,0,1,.255,1.425c.038.754.045,1.044.045,3s-.007,2.246-.045,3a4.2,4.2,0,0,1-.255,1.395,2.313,2.313,0,0,1-.562.863,2.372,2.372,0,0,1-.863.562,4.2,4.2,0,0,1-1.395.255C16.348,19.806,16.056,19.813,14.115,19.813ZM14.1,9.845h-.014a3.841,3.841,0,1,0,.014,0Zm3.99-1.057a.9.9,0,1,0,.9.9A.9.9,0,0,0,18.089,8.788Zm-4,7.4a2.5,2.5,0,1,1,2.5-2.5A2.5,2.5,0,0,1,14.085,16.19Z" fill="#200e32"/>
</svg>
