<svg xmlns="http://www.w3.org/2000/svg" width="27.214" height="27.214" viewBox="0 0 27.214 27.214">
  <path id="Linked_In" data-name="Linked In" d="M13.607,0A13.607,13.607,0,1,0,27.214,13.607,13.607,13.607,0,0,0,13.607,0ZM9.653,20.57H6.339V10.6H9.653ZM8,9.242H7.974a1.727,1.727,0,1,1,.044-3.449A1.728,1.728,0,1,1,8,9.242ZM21.6,20.574H18.289V15.233c0-1.34-.48-2.255-1.679-2.255a1.814,1.814,0,0,0-1.7,1.212A2.27,2.27,0,0,0,14.8,15v5.568H11.487s.044-9.034,0-9.97h3.318v1.412a3.29,3.29,0,0,1,2.987-1.646c2.181,0,3.815,1.425,3.815,4.487Zm0,0" fill="#200e32"/>
</svg>
