<svg xmlns="http://www.w3.org/2000/svg" width="108.478" height="91.408" viewBox="0 0 108.478 91.408">
  <g id="Logo" transform="translate(16138.182 15976.743)">
    <path id="Subtraction_4" data-name="Subtraction 4" d="M13.29,48.46H0V.039H7.742S8.107,0,8.695,0A13.31,13.31,0,0,1,14.33,1.212,8.976,8.976,0,0,1,17.321,3.52,9.729,9.729,0,0,1,19.3,7.666a12.794,12.794,0,0,1,.034,5.751,12.694,12.694,0,0,1-1.84,4.2,13.671,13.671,0,0,1-3.279,3.452h0a7.583,7.583,0,0,1,1.382.267,10.4,10.4,0,0,1,3.12,1.481,10.93,10.93,0,0,1,3.293,3.713A17.044,17.044,0,0,1,23.921,33.5a14.116,14.116,0,0,1-1.271,7.36,13.538,13.538,0,0,1-3.7,4.586A17.422,17.422,0,0,1,15.081,47.8a13.7,13.7,0,0,1-1.791.664ZM3.653,22.492V46.325h8.956a7.946,7.946,0,0,0,1.894-.673,9.932,9.932,0,0,0,3.626-3.025c1.724-2.34,2.626-6.694,2.143-10.353a11.306,11.306,0,0,0-4.585-8.152,9.818,9.818,0,0,0-3.724-1.631Zm0-20.413V20.4h6.633a4.486,4.486,0,0,0,1.437-.305,5.725,5.725,0,0,0,2.66-2.092c1.238-1.744,1.946-5.516,1.578-8.407a8.756,8.756,0,0,0-3.4-6.268A7.114,7.114,0,0,0,9.808,2.079Z" transform="translate(-16138.182 -15976.743)" fill="#fff"/>
    <path id="Path_32" data-name="Path 32" d="M-16037.538-15889.646v-13.334h3.487v24.617h-3.487v-2.052s-4.271,4.292-8.753.958-4.377-10.6-4.377-10.6.113-6.236,3.164-10.143a6.957,6.957,0,0,1,5.385-2.781,22.8,22.8,0,0,1,3.076,0v1.809s-1.055-.006-2.416,0a4.908,4.908,0,0,0-1.812.174c-.952.357-2.079,1.49-3.021,4.783a25,25,0,0,0-.746,8.388c.178,1.337,1.649,9.338,5.665,7.412S-16037.538-15889.646-16037.538-15889.646Z" transform="translate(-60.175 -50.682)" fill="#fff"/>
    <path id="Subtraction_5" data-name="Subtraction 5" d="M8.5,68.915a4.611,4.611,0,0,1-2.37-.984,8.917,8.917,0,0,1-1.616-1.523,12.722,12.722,0,0,1-1.595-2.47A20.091,20.091,0,0,1,1.169,59.2a51.49,51.49,0,0,1-1-6.871A30.642,30.642,0,0,1,.448,43.79a22.628,22.628,0,0,1,1.893-5.866,17.438,17.438,0,0,1,2.14-3.382A9.256,9.256,0,0,1,5.5,33.456h0a5.322,5.322,0,0,1-1.231-.829,2.791,2.791,0,0,1-.709-.963A1.718,1.718,0,0,1,3.525,30.4a8.459,8.459,0,0,1,2.549-2.891c1.047-.846,2.032-1.48,2.055-1.5h0a6.831,6.831,0,0,1-1.257-.454A9.95,9.95,0,0,1,4.112,23.64a11.718,11.718,0,0,1-2.706-4.217A19.369,19.369,0,0,1,.292,12.074a18.216,18.216,0,0,1,1.3-6.858A8.882,8.882,0,0,1,4.3,1.631,8.347,8.347,0,0,1,9.21.006L9.351,0h.04a3.476,3.476,0,0,1,1.3.391,8.538,8.538,0,0,1,1.9,1.274,11.418,11.418,0,0,1,3.466,5.791,28.947,28.947,0,0,1,.733,4.253,19.981,19.981,0,0,1,.024,4.425,15.1,15.1,0,0,1-1.314,4.43,8.984,8.984,0,0,1-.906,1.535,21.086,21.086,0,0,1-2.21,2.428,15.127,15.127,0,0,1-1.23.995,14.494,14.494,0,0,0-1.229,1A7.842,7.842,0,0,0,7.8,29.6a1.876,1.876,0,0,0,.158,1.641,3.679,3.679,0,0,0,1.9,1.29,7.45,7.45,0,0,0,1.284.32,8.231,8.231,0,0,1,.953.988,17.3,17.3,0,0,1,2.1,3.207,25.593,25.593,0,0,1,2.1,5.791,37.874,37.874,0,0,1,.953,8.74,29.286,29.286,0,0,1-1.454,9.482,16.228,16.228,0,0,1-3.15,5.693,6.99,6.99,0,0,1-2.262,1.774,4.3,4.3,0,0,1-1.516.357c-.087.007-.168.015-.244.024A.953.953,0,0,1,8.5,68.915ZM8.8,34.127a2.624,2.624,0,0,0-2.006,1.289,12.029,12.029,0,0,0-1.639,3.515,40.3,40.3,0,0,0-1.51,11.6,40.3,40.3,0,0,0,1.51,11.6A12.03,12.03,0,0,0,6.789,65.64,2.624,2.624,0,0,0,8.8,66.929,2.623,2.623,0,0,0,10.8,65.64a12.029,12.029,0,0,0,1.638-3.515,40.3,40.3,0,0,0,1.51-11.6,40.306,40.306,0,0,0-1.51-11.6A12.029,12.029,0,0,0,10.8,35.416,2.623,2.623,0,0,0,8.8,34.127ZM8.639,1.95a2.587,2.587,0,0,0-1.824.872A7.454,7.454,0,0,0,5.326,5.2,20.787,20.787,0,0,0,3.954,13.04a20.788,20.788,0,0,0,1.372,7.842,7.454,7.454,0,0,0,1.489,2.377,2.587,2.587,0,0,0,1.824.872,2.587,2.587,0,0,0,1.824-.872,7.454,7.454,0,0,0,1.49-2.377,20.787,20.787,0,0,0,1.373-7.842A20.786,20.786,0,0,0,11.953,5.2a7.454,7.454,0,0,0-1.49-2.377A2.587,2.587,0,0,0,8.639,1.95Z" transform="translate(-16090.689 -15954.25)" fill="#fff"/>
    <path id="Subtraction_6" data-name="Subtraction 6" d="M8.5,68.915a4.611,4.611,0,0,1-2.37-.984,8.917,8.917,0,0,1-1.616-1.523,12.722,12.722,0,0,1-1.595-2.47A20.091,20.091,0,0,1,1.169,59.2a51.49,51.49,0,0,1-1-6.871A30.642,30.642,0,0,1,.448,43.79a22.628,22.628,0,0,1,1.893-5.866,17.438,17.438,0,0,1,2.14-3.382A9.256,9.256,0,0,1,5.5,33.456h0a5.322,5.322,0,0,1-1.231-.829,2.791,2.791,0,0,1-.709-.963A1.718,1.718,0,0,1,3.525,30.4a8.459,8.459,0,0,1,2.549-2.891c1.047-.846,2.032-1.48,2.055-1.5h0a6.831,6.831,0,0,1-1.257-.454A9.95,9.95,0,0,1,4.112,23.64a11.718,11.718,0,0,1-2.706-4.217A19.369,19.369,0,0,1,.292,12.074a18.216,18.216,0,0,1,1.3-6.858A8.882,8.882,0,0,1,4.3,1.631,8.347,8.347,0,0,1,9.21.006L9.351,0h.04a3.476,3.476,0,0,1,1.3.391,8.538,8.538,0,0,1,1.9,1.274,11.418,11.418,0,0,1,3.466,5.791,28.947,28.947,0,0,1,.733,4.253,19.981,19.981,0,0,1,.024,4.425,15.1,15.1,0,0,1-1.314,4.43,8.984,8.984,0,0,1-.906,1.535,21.086,21.086,0,0,1-2.21,2.428,15.127,15.127,0,0,1-1.23.995,14.494,14.494,0,0,0-1.229,1A7.842,7.842,0,0,0,7.8,29.6a1.876,1.876,0,0,0,.158,1.641,3.679,3.679,0,0,0,1.9,1.29,7.45,7.45,0,0,0,1.284.32,8.231,8.231,0,0,1,.953.988,17.3,17.3,0,0,1,2.1,3.207,25.593,25.593,0,0,1,2.1,5.791,37.874,37.874,0,0,1,.953,8.74,29.286,29.286,0,0,1-1.454,9.482,16.228,16.228,0,0,1-3.15,5.693,6.99,6.99,0,0,1-2.262,1.774,4.3,4.3,0,0,1-1.516.357c-.087.007-.168.015-.244.024A.953.953,0,0,1,8.5,68.915ZM8.492,34.127a2.45,2.45,0,0,0-1.885,1.289,12.388,12.388,0,0,0-1.539,3.515,42.747,42.747,0,0,0-1.418,11.6,42.745,42.745,0,0,0,1.418,11.6A12.388,12.388,0,0,0,6.607,65.64a2.45,2.45,0,0,0,1.885,1.289,2.45,2.45,0,0,0,1.885-1.289,12.387,12.387,0,0,0,1.539-3.515,42.748,42.748,0,0,0,1.418-11.6,42.749,42.749,0,0,0-1.418-11.6,12.387,12.387,0,0,0-1.539-3.515A2.45,2.45,0,0,0,8.492,34.127ZM8.648,1.95a2.587,2.587,0,0,0-1.824.872A7.453,7.453,0,0,0,5.335,5.2,20.786,20.786,0,0,0,3.962,13.04a20.787,20.787,0,0,0,1.373,7.842,7.453,7.453,0,0,0,1.49,2.377,2.587,2.587,0,0,0,1.824.872,2.587,2.587,0,0,0,1.824-.872,7.454,7.454,0,0,0,1.489-2.377,20.788,20.788,0,0,0,1.372-7.842A20.787,20.787,0,0,0,11.961,5.2a7.454,7.454,0,0,0-1.489-2.377A2.587,2.587,0,0,0,8.648,1.95Z" transform="translate(-16070.079 -15954.25)" fill="#fff"/>
    <path id="Path_35" data-name="Path 35" d="M-15889.65-15930.445s3.623-2.1,4.365-.333-2.031,7.149-2.031,7.149l.906.775s5.219-8.355,4.117-10.582-7.661,2.418-7.661,2.418Z" transform="translate(-170.682 -29.363)" fill="#a31b2d"/>
    <rect id="Rectangle_152" data-name="Rectangle 152" width="3.749" height="24.679" transform="translate(-16048.467 -15953.706)" fill="#fff"/>
    <rect id="Rectangle_153" data-name="Rectangle 153" width="3.749" height="3.749" transform="translate(-16048.467 -15959.329)" fill="#fff"/>
    <path id="Path_36" data-name="Path 36" d="M-5.435,0h3.749L-1.7,10.118H3.331v1.989H-1.7l.01,19.446a4.2,4.2,0,0,0,.633,2.576,3.229,3.229,0,0,0,2.347.622v1.676a5.835,5.835,0,0,1-4.717-.5c-2.083-1.413-2.012-4.371-2.012-4.371V12.173H-7.9l.032-2.139h2.437Z" transform="translate(-16033.035 -15965.89)" fill="#fff"/>
  </g>
</svg>
