<svg xmlns="http://www.w3.org/2000/svg" width="28" height="28" viewBox="0 0 28 28">
  <g id="Mail" transform="translate(-1217 -9434)" opacity="0.5">
    <path id="Path_28" data-name="Path 28" d="M14,0A14,14,0,1,0,28,14,14,14,0,0,0,14,0Z" transform="translate(1217.001 9434)" fill="#200e32"/>
    <g id="Page-1" transform="translate(1223.186 9441.749)">
      <g id="Artboard" transform="translate(0)">
        <g id="mail-2" data-name="mail">
          <path id="Shape" d="M1.563,0h12.5a1.567,1.567,0,0,1,1.563,1.563v9.376A1.567,1.567,0,0,1,14.064,12.5H1.563A1.567,1.567,0,0,1,0,10.939V1.563A1.567,1.567,0,0,1,1.563,0Z" fill="none" stroke="#f6f5f5" stroke-linecap="round" stroke-linejoin="round" stroke-width="1.5" fill-rule="evenodd"/>
          <path id="Shape-2" data-name="Shape" d="M15.627,2,7.813,7.469,0,2" transform="translate(0 -0.437)" fill="none" stroke="#f6f5f5" stroke-linecap="round" stroke-linejoin="round" stroke-width="1.5" fill-rule="evenodd"/>
        </g>
      </g>
    </g>
  </g>
</svg>
