<svg xmlns="http://www.w3.org/2000/svg" width="27.548" height="27.548" viewBox="0 0 27.548 27.548">
  <path id="Pinterest" d="M13.775,27.548A13.774,13.774,0,0,1,4.034,4.034a13.774,13.774,0,1,1,19.48,19.479A13.683,13.683,0,0,1,13.775,27.548Zm-.93-18.631a1.7,1.7,0,0,0-1.376.745,2.991,2.991,0,0,0-.57,1.867l.018.263a3.11,3.11,0,0,0,.088.64,2.991,2.991,0,0,0,.227.675L10.856,14.7q-.764,3.228-.921,3.9a6.876,6.876,0,0,0-.131.841c-.03.3-.048.582-.053.833,0,.266,0,.528.018.78s.035.482.052.657c.017.16.034.317.053.482l.007.062c.012.112.019.173.019.183a.125.125,0,0,0,.1.1.177.177,0,0,0,.035,0,.128.128,0,0,0,.106-.056l.106-.14c.068-.08.143-.175.228-.29.074-.1.163-.226.289-.411.113-.167.225-.344.334-.526.131-.224.237-.414.333-.6.12-.228.22-.443.307-.657a5.278,5.278,0,0,0,.228-.675l.7-2.77a2.263,2.263,0,0,0,.973.894,3.122,3.122,0,0,0,1.481.367,4.759,4.759,0,0,0,3.917-1.954,7.869,7.869,0,0,0,1.516-4.952,5.455,5.455,0,0,0-1.788-4.049,6.361,6.361,0,0,0-4.575-1.718,8.212,8.212,0,0,0-3.129.578A6.389,6.389,0,0,0,8.787,7.094,6.985,6.985,0,0,0,7.455,9.109,5.541,5.541,0,0,0,6.99,11.3a5.265,5.265,0,0,0,.517,2.392,2.951,2.951,0,0,0,1.551,1.446.478.478,0,0,0,.176.037.352.352,0,0,0,.14-.029.313.313,0,0,0,.176-.254,3.709,3.709,0,0,0,.1-.4,3.54,3.54,0,0,1,.106-.4.571.571,0,0,0-.14-.561,3.026,3.026,0,0,1-.666-1.981,4.737,4.737,0,0,1,1.376-3.4,4.788,4.788,0,0,1,3.585-1.419A4.25,4.25,0,0,1,17,7.8a3.73,3.73,0,0,1,1.1,2.778,7.532,7.532,0,0,1-.9,3.795,2.643,2.643,0,0,1-2.288,1.568,1.6,1.6,0,0,1-1.288-.578A1.516,1.516,0,0,1,13.319,14c.069-.312.187-.727.35-1.235s.295-.961.394-1.349a4.164,4.164,0,0,0,.149-.99,1.628,1.628,0,0,0-.359-1.078A1.251,1.251,0,0,0,12.845,8.917Z" fill="#200e32"/>
</svg>
