<svg xmlns="http://www.w3.org/2000/svg" width="23.75" height="23.75" viewBox="0 0 23.75 23.75">
  <g id="Search" transform="translate(-0.23 -0.386)">
    <path id="Ellipse_2" data-name="Ellipse 2" d="M10.5,1.5a9,9,0,1,0,9,9,9.01,9.01,0,0,0-9-9m0-1.5A10.5,10.5,0,1,1,0,10.5,10.5,10.5,0,0,1,10.5,0Z" transform="translate(0.23 0.386)" fill="#fff"/>
    <path id="Line_6" data-name="Line 6" d="M4,4.75a.748.748,0,0,1-.53-.22l-4-4A.75.75,0,0,1-.53-.53.75.75,0,0,1,.53-.53l4,4A.75.75,0,0,1,4,4.75Z" transform="translate(19.23 19.386)" fill="#fff"/>
  </g>
</svg>
