<svg xmlns="http://www.w3.org/2000/svg" width="27.548" height="27.548" viewBox="0 0 27.548 27.548">
  <path id="Twitter" d="M13.774,0A13.774,13.774,0,1,0,27.547,13.774,13.774,13.774,0,0,0,13.774,0Zm6.289,10.739q.009.2.009.408a8.934,8.934,0,0,1-9,9h0a8.948,8.948,0,0,1-4.845-1.42,6.431,6.431,0,0,0,.754.044,6.343,6.343,0,0,0,3.926-1.353,3.166,3.166,0,0,1-2.952-2.2,3.151,3.151,0,0,0,1.427-.054,3.166,3.166,0,0,1-2.54-3.1c0-.015,0-.027,0-.04a3.14,3.14,0,0,0,1.432.4A3.166,3.166,0,0,1,7.3,8.2a8.976,8.976,0,0,0,6.517,3.3,3.166,3.166,0,0,1,5.391-2.883,6.341,6.341,0,0,0,2.008-.77A3.174,3.174,0,0,1,19.829,9.6a6.306,6.306,0,0,0,1.815-.5,6.424,6.424,0,0,1-1.582,1.641Zm0,0" transform="translate(0.001)" fill="#200e32"/>
</svg>
