<svg id="We_thrive_for_" data-name="We thrive for " xmlns="http://www.w3.org/2000/svg" width="112" height="112" viewBox="0 0 112 112">
  <g id="Ellipse_63" data-name="Ellipse 63" fill="rgba(255,255,255,0)" stroke="#000" stroke-width="2">
    <circle cx="56" cy="56" r="56" stroke="none"/>
    <circle cx="56" cy="56" r="55" fill="none"/>
  </g>
  <path id="Path_51" data-name="Path 51" d="M-5668.9-2359.6s15.775-23.662,32.921-5.144" transform="translate(5683.747 2452.301)" fill="none" stroke="#000" stroke-width="2"/>
  <path id="Path_53" data-name="Path 53" d="M-5668.9-2368.464s4.333-6.5,9.044-1.413" transform="translate(5698.579 2456.734)" fill="none" stroke="#000" stroke-width="2"/>
  <path id="Path_56" data-name="Path 56" d="M-5668.9-2370.681s1.473-2.21,3.075-.48" transform="translate(5716.668 2452.301)" fill="none" stroke="#000" stroke-width="2"/>
  <path id="Path_52" data-name="Path 52" d="M-5637.135-2344.781s-1.094.854-9.109-7.2c-5.434-5.461-10.006-19.235-21.775-15.379" transform="translate(5730.034 2441.755)" fill="none" stroke="#000" stroke-width="2"/>
  <path id="Path_54" data-name="Path 54" d="M-5660.945-2365.079c-1.656-1.664-3.487-3.875-7.074-2.7" transform="translate(5732.815 2446.759)" fill="none" stroke="#000" stroke-width="2"/>
  <path id="Path_55" data-name="Path 55" d="M-5651.146-2409.986s11.69,6.112,17.56,14.694,5.917,19.634,5.917,19.634-.207-13.617,4.7-25.1,14.919-20.822,14.919-20.822" transform="translate(5682.451 2462.249)" fill="none" stroke="#000" stroke-width="2"/>
  <path id="Path_57" data-name="Path 57" d="M-5666.453-2416.911a114.735,114.735,0,0,1,5.633,10.577c2.109,4.592,3.52,9.619,7.2,12.063,7.69,5.114,14.589,2.384,17.933-2.185s2.557-12.056-5.133-17.17S-5666.453-2416.911-5666.453-2416.911Z" transform="translate(5684.657 2461.271)" fill="none" stroke="#000" stroke-width="2"/>
  <path id="Path_58" data-name="Path 58" d="M32.637.318a65.119,65.119,0,0,0-5.487,9.712c-2.139,4.819-3.45,10.341-7.341,12.929-7.69,5.114-14.59,2.384-17.933-2.185S-.681,8.717,7.009,3.6,32.637.318,32.637.318Z" transform="translate(55.402 35.182) rotate(-13)" fill="none" stroke="#000" stroke-width="2"/>
</svg>
