<svg xmlns="http://www.w3.org/2000/svg" width="28" height="28" viewBox="0 0 28 28">
  <path id="Youtube" d="M14,28A14,14,0,0,1,4.1,4.1,14,14,0,1,1,23.9,23.9,13.908,13.908,0,0,1,14,28Zm-1.338-8.564c.537.008,1.069.012,1.582.012,2,0,3.731-.064,5.6-.209a2.021,2.021,0,0,0,1.078-.55,1.761,1.761,0,0,0,.43-.7,7.429,7.429,0,0,0,.366-2.395c.025-.356.028-2.355.028-3.2a6.007,6.007,0,0,0-.641-2.91,2.064,2.064,0,0,0-1.212-.7c-1.653-.15-3.332-.226-4.993-.226-.3,0-.6,0-.9.007-.315-.005-.635-.008-.951-.008-1.638,0-3.294.074-4.924.22A2.024,2.024,0,0,0,7.1,9.292a3.535,3.535,0,0,0-.771,2.377l0,.054a34.286,34.286,0,0,0,0,4.565A6.75,6.75,0,0,0,6.534,17.7a2.223,2.223,0,0,0,.5.958,2.008,2.008,0,0,0,1.05.55,32.01,32.01,0,0,0,3.9.24C12.209,19.444,12.437,19.441,12.663,19.436Zm-.254-3.423h0V11.653l4.17,2.19c-.6.333-1.3.688-2.039,1.064-.7.355-1.423.723-2.13,1.106Z" fill="#200e32"/>
</svg>
